<?xml version="1.0" standalone="no"?>
<!DOCTYPE svg PUBLIC "-//W3C//DTD SVG 20010904//EN"
 "http://www.w3.org/TR/2001/REC-SVG-20010904/DTD/svg10.dtd">
<svg version="1.0" xmlns="http://www.w3.org/2000/svg"
 width="500.000000pt" height="500.000000pt" viewBox="0 0 500.000000 500.000000"
 preserveAspectRatio="xMidYMid meet">

<g transform="translate(0.000000,500.000000) scale(0.100000,-0.100000)"
fill="#000000" stroke="none">
<path d="M1039 3404 c-11 -14 -15 -74 -17 -326 l-3 -308 116 0 c70 0 115 -4
115 -10 0 -7 423 -10 1250 -10 827 0 1250 3 1250 10 0 6 48 10 125 10 l125 0
0 103 c0 57 -5 130 -11 163 -34 187 -186 339 -373 373 -85 16 -558 15 -574 -1
-9 -9 -12 -95 -12 -325 l0 -313 -513 0 -514 0 -6 138 c-11 234 -62 345 -198
432 -102 66 -143 73 -460 78 -262 3 -286 2 -300 -14z m560 -338 c40 -39 51
-80 51 -198 l0 -98 -140 0 -140 0 0 166 0 166 99 -4 c95 -3 101 -5 130 -32z
m1997 4 c43 -40 54 -79 54 -195 l0 -105 -140 0 -140 0 0 166 0 166 99 -4 c90
-3 102 -5 127 -28z"/>
<path d="M1520 2490 l0 -80 29 0 c43 0 61 23 61 80 0 57 -18 80 -61 80 l-29 0
0 -80z m60 0 c0 -38 -4 -50 -15 -50 -11 0 -15 12 -15 50 0 38 4 50 15 50 11 0
15 -12 15 -50z"/>
<path d="M1763 2563 c-17 -6 -27 -65 -19 -108 5 -26 13 -36 32 -41 39 -10 54
11 54 75 0 71 -20 94 -67 74z m37 -74 c0 -36 -4 -49 -12 -47 -14 5 -23 61 -14
84 12 31 26 11 26 -37z"/>
<path d="M1972 2499 c2 -55 7 -74 21 -83 12 -8 22 -8 35 0 22 14 32 159 10
152 -8 -3 -14 -27 -16 -66 -4 -82 -22 -80 -22 3 0 52 -3 65 -15 65 -13 0 -15
-12 -13 -71z"/>
<path d="M2206 2554 c-35 -34 -13 -144 27 -144 25 0 39 18 40 51 2 25 -3 34
-16 37 -16 3 -18 0 -12 -27 5 -24 3 -31 -9 -31 -12 0 -16 11 -16 50 0 38 4 50
15 50 8 0 15 -4 15 -10 0 -5 5 -10 10 -10 16 0 11 37 -6 44 -24 9 -31 8 -48
-10z"/>
<path d="M2420 2491 l0 -81 35 0 c24 0 35 5 35 15 0 8 -9 15 -20 15 -16 0 -19
8 -22 62 -2 38 -8 63 -15 66 -10 3 -13 -17 -13 -77z"/>
<path d="M2636 2554 c-22 -22 -23 -144 -1 -144 8 0 15 9 15 20 0 11 7 20 15
20 8 0 15 -9 15 -20 0 -11 7 -20 15 -20 12 0 15 14 15 64 0 65 -14 96 -45 96
-7 0 -21 -7 -29 -16z m44 -44 c0 -20 -5 -30 -15 -30 -10 0 -15 10 -15 30 0 20
5 30 15 30 10 0 15 -10 15 -30z"/>
<path d="M2862 2558 c-19 -19 -14 -46 13 -70 25 -22 33 -48 15 -48 -5 0 -10 5
-10 10 0 6 -7 10 -16 10 -20 0 -15 -29 9 -44 12 -8 22 -8 35 0 27 17 26 51 -2
77 -27 25 -34 47 -16 47 6 0 10 -4 10 -10 0 -5 7 -10 15 -10 8 0 15 6 15 13 0
18 -21 37 -40 37 -9 0 -21 -5 -28 -12z"/>
<path d="M3250 2490 c0 -64 3 -80 15 -80 10 0 15 10 15 31 0 17 4 28 10 24 6
-3 10 -17 10 -31 0 -14 6 -24 14 -24 11 0 14 16 14 68 0 76 -9 92 -49 92 l-29
0 0 -80z m50 31 c0 -11 -4 -23 -10 -26 -6 -4 -10 5 -10 19 0 14 5 26 10 26 6
0 10 -9 10 -19z"/>
<path d="M3476 2433 c-11 -11 -6 -23 9 -23 8 0 15 4 15 9 0 13 -16 22 -24 14z"/>
<path d="M1250 2240 c0 -6 -45 -10 -115 -10 l-116 0 3 -295 c2 -225 6 -297 16
-307 10 -10 76 -13 290 -13 237 1 286 4 337 19 120 36 201 92 255 176 48 76
69 154 76 295 l7 125 514 0 513 0 0 -300 0 -300 26 -10 c14 -6 80 -10 147 -10
182 0 167 -30 167 326 l0 294 99 0 99 0 22 -34 c36 -59 50 -155 50 -357 0
-167 2 -188 18 -202 15 -14 42 -17 160 -17 180 0 172 -8 172 180 -1 150 -12
291 -31 375 l-12 55 -99 0 c-59 0 -98 4 -98 10 0 7 -423 10 -1250 10 -827 0
-1250 -3 -1250 -10z m400 -98 c0 -71 -4 -96 -22 -132 -32 -62 -72 -80 -175
-80 l-83 0 0 150 0 150 140 0 140 0 0 -88z"/>
</g>
</svg>
